<svg width="12" height="20" viewBox="0 0 12 20" fill="none" xmlns="http://www.w3.org/2000/svg">
<path d="M2.87495 19.1L11.3 10.7C11.4 10.6 11.4706 10.4917 11.512 10.375C11.554 10.2584 11.575 10.1334 11.575 10C11.575 9.86669 11.554 9.74169 11.512 9.62502C11.4706 9.50836 11.4 9.40002 11.3 9.30002L2.87495 0.875024C2.64162 0.641691 2.34995 0.525024 1.99995 0.525024C1.64995 0.525024 1.34995 0.650024 1.09995 0.900024C0.849952 1.15002 0.724952 1.44169 0.724952 1.77502C0.724952 2.10836 0.849952 2.40002 1.09995 2.65002L8.44995 10L1.09995 17.35C0.866618 17.5834 0.749951 17.8707 0.749951 18.212C0.749951 18.554 0.874951 18.85 1.12495 19.1C1.37495 19.35 1.66662 19.475 1.99995 19.475C2.33328 19.475 2.62495 19.35 2.87495 19.1Z" fill="black"/>
</svg>
