<svg width="61" height="62" viewBox="0 0 61 62" fill="none" xmlns="http://www.w3.org/2000/svg">
<path d="M7.85457 6.94911L10.5644 3.56428H50.7096L53.8543 6.94911M30.8711 49.2596L12.4713 30.643H24.1803V23.8733H37.562V30.643H49.271L30.8711 49.2596ZM59.4411 7.72763L54.791 2.0411C53.8877 0.890259 52.5161 0.179443 50.9437 0.179443H10.7986C9.2262 0.179443 7.85457 0.890259 6.91785 2.0411L2.30115 7.72763C1.33098 8.87847 0.762253 10.3339 0.762253 12.0264V54.3368C0.762253 56.1322 1.46718 57.8541 2.72196 59.1237C3.97674 60.3932 5.67859 61.1065 7.45312 61.1065H54.2892C56.0637 61.1065 57.7656 60.3932 59.0203 59.1237C60.2751 57.8541 60.98 56.1322 60.98 54.3368V12.0264C60.98 10.3339 60.4113 8.87847 59.4411 7.72763Z" fill="url(#paint0_linear_967_68)"/>
<defs>
<linearGradient id="paint0_linear_967_68" x1="30.8711" y1="0.179443" x2="30.8711" y2="61.1065" gradientUnits="userSpaceOnUse">
<stop offset="0.9999" stop-color="#15CDCB"/>
<stop offset="1" stop-color="#3F54D1"/>
</linearGradient>
</defs>
</svg>
