<svg width="64" height="67" viewBox="0 0 64 67" fill="none" xmlns="http://www.w3.org/2000/svg">
<path d="M35.433 55.4855C35.433 43.4032 43.9589 33.5841 54.45 33.5841C57.9364 33.5841 61.1693 34.6791 63.9585 36.5408V8.03231C63.9585 6.0961 63.2906 4.23919 62.1018 2.87008C60.913 1.50097 59.3007 0.731812 57.6195 0.731812H6.90753C3.38939 0.731812 0.568542 3.98053 0.568542 8.03231V51.8353C0.568542 53.7715 1.2364 55.6284 2.42519 56.9975C3.61398 58.3666 5.22633 59.1358 6.90753 59.1358H35.7183C35.5598 57.9312 35.433 56.7266 35.433 55.4855ZM6.90753 15.3328V8.03231L32.2635 26.2836L57.6195 8.03231V15.3328L32.2635 33.5841L6.90753 15.3328ZM51.2805 44.5348V51.8353H63.9585V59.1358H51.2805V66.4363L41.772 55.4855L51.2805 44.5348Z" fill="url(#paint0_linear_967_72)"/>
<defs>
<linearGradient id="paint0_linear_967_72" x1="32.2635" y1="0.731812" x2="32.2635" y2="66.4363" gradientUnits="userSpaceOnUse">
<stop offset="0.9999" stop-color="#15CDCB"/>
<stop offset="1" stop-color="#3F54D1"/>
</linearGradient>
</defs>
</svg>
