<svg width="30" height="25" viewBox="0 0 30 25" fill="none" xmlns="http://www.w3.org/2000/svg">
<path d="M3 25C2.175 25 1.469 24.6943 0.882 24.0828C0.294 23.4703 0 22.7344 0 21.875V3.125C0 2.26562 0.294 1.53021 0.882 0.91875C1.469 0.30625 2.175 0 3 0H27C27.825 0 28.5315 0.30625 29.1195 0.91875C29.7065 1.53021 30 2.26562 30 3.125V21.875C30 22.7344 29.7065 23.4703 29.1195 24.0828C28.5315 24.6943 27.825 25 27 25H3ZM27 6.25L15.7875 13.5547C15.6625 13.6328 15.531 13.6911 15.393 13.7297C15.256 13.7693 15.125 13.7891 15 13.7891C14.875 13.7891 14.744 13.7693 14.607 13.7297C14.469 13.6911 14.3375 13.6328 14.2125 13.5547L3 6.25V21.875H27V6.25ZM15 10.9375L27 3.125H3L15 10.9375ZM3 6.25V6.64062V4.33594V4.375V3.125V4.375V4.35469V6.64062V6.25V21.875V6.25Z" fill="#A7AFB1"/>
</svg>
