<svg width="84" height="46" viewBox="0 0 84 46" fill="none" xmlns="http://www.w3.org/2000/svg">
<path d="M42 0C22.9091 0 6.60545 9.53733 0 23C6.60545 36.4627 22.9091 46 42 46C61.0909 46 77.3945 36.4627 84 23C77.3945 9.53733 61.0909 0 42 0ZM42 38.3333C31.4618 38.3333 22.9091 31.464 22.9091 23C22.9091 14.536 31.4618 7.66667 42 7.66667C52.5382 7.66667 61.0909 14.536 61.0909 23C61.0909 31.464 52.5382 38.3333 42 38.3333ZM42 13.8C35.6618 13.8 30.5455 17.9093 30.5455 23C30.5455 28.0907 35.6618 32.2 42 32.2C48.3382 32.2 53.4545 28.0907 53.4545 23C53.4545 17.9093 48.3382 13.8 42 13.8Z" fill="#15CDCB"/>
</svg>
