<svg width="87" height="78" viewBox="0 0 87 78" fill="none" xmlns="http://www.w3.org/2000/svg">
<path d="M24.5752 59.3309C19.8981 57.9728 15.1308 59.7268 13.9203 63.2464C12.7085 66.7673 15.5204 70.7237 20.1975 72.0819C24.8746 73.44 29.6433 71.6847 30.8538 68.1638C32.0599 64.6442 29.2508 60.689 24.5752 59.3309ZM7.32517 70.8032C5.73224 71.9217 5.56321 74.1742 6.94413 75.8347C8.32361 77.4977 10.7316 77.9372 12.3231 76.8199C13.9132 75.7014 14.0851 73.4477 12.707 71.7872C11.3275 70.1241 8.91666 69.6847 7.32517 70.8032ZM86.569 27.0267C86.5767 25.4052 86.1666 23.8038 85.3707 22.3469C84.5748 20.89 83.4143 19.6166 81.9793 18.6256C82.0008 18.3808 82.0122 18.1336 82.0122 17.8837C82.0122 12.4679 77.2392 8.07831 71.3502 8.07831C70.9778 8.07831 70.6111 8.09625 70.2501 8.12956C68.0125 4.63559 63.8798 2.28963 59.1512 2.28963C56.3578 2.28963 53.7736 3.10706 51.6635 4.49594C48.9991 2.06541 45.3305 0.5625 41.278 0.5625C34.68 0.5625 29.0918 4.54847 27.2095 10.0463C24.9358 8.59342 22.2112 7.8126 19.4168 7.81309C11.8447 7.81309 5.70932 13.457 5.70932 20.418C5.70932 22.4732 6.24507 24.4117 7.19195 26.1247C3.21393 28.718 0.61969 32.982 0.61969 37.8059C0.61969 45.7073 7.58301 52.1136 16.1765 52.1136C19.3366 52.1136 22.2746 51.2462 24.7299 49.7587C26.0578 55.8126 31.8723 60.3738 38.8485 60.3738C44.0398 60.3738 48.588 57.8472 51.1206 54.0611C52.0054 54.8783 53.0645 55.5283 54.2353 55.9726C55.406 56.417 56.6646 56.6466 57.9364 56.6479C62.9874 56.6479 67.1315 53.0809 67.5599 48.5376C68.7726 48.9411 70.0563 49.1472 71.3502 49.1462C77.5171 49.1462 82.5165 44.5491 82.5165 38.8796C82.5165 37.6906 82.2944 36.549 81.889 35.4868C83.3499 34.4984 84.5334 33.2194 85.3457 31.7509C86.158 30.2825 86.5768 28.6651 86.569 27.0267Z" fill="#5280E2"/>
</svg>
