<svg width="236" height="233" viewBox="0 0 236 233" fill="none" xmlns="http://www.w3.org/2000/svg">
<g clip-path="url(#clip0_573_146)">
<path d="M210.564 64.7222H25.4355C22.1669 64.7222 19.0321 66.0041 16.7208 68.286C14.4095 70.5679 13.1111 73.6629 13.1111 76.8899V194.943C13.1111 198.17 14.4095 201.265 16.7208 203.547C19.0321 205.829 22.1669 207.111 25.4355 207.111H210.564C213.833 207.111 216.968 205.829 219.279 203.547C221.59 201.265 222.889 198.17 222.889 194.943V76.8899C222.889 73.6629 221.59 70.5679 219.279 68.286C216.968 66.0041 213.833 64.7222 210.564 64.7222ZM158.513 141.289L94.4655 169.507C93.4682 169.95 92.3747 170.139 91.2843 170.058C90.194 169.977 89.1416 169.628 88.2229 169.042C87.3042 168.457 86.5484 167.654 86.0243 166.706C85.5002 165.759 85.2245 164.697 85.2222 163.618V107.18C85.2245 106.1 85.5002 105.039 86.0243 104.091C86.5484 103.144 87.3042 102.341 88.2229 101.755C89.1416 101.17 90.194 100.821 91.2843 100.74C92.3747 100.658 93.4682 100.848 94.4655 101.29L158.513 129.444C159.677 129.951 160.666 130.78 161.36 131.832C162.054 132.883 162.424 134.111 162.424 135.366C162.424 136.622 162.054 137.85 161.36 138.901C160.666 139.953 159.677 140.782 158.513 141.289Z" fill="#5280E2"/>
<path d="M197.584 19.4167C197.584 17.7001 196.894 16.0539 195.664 14.8401C194.435 13.6264 192.768 12.9445 191.029 12.9445H46.8067C45.068 12.9445 43.4006 13.6264 42.1712 14.8401C40.9418 16.0539 40.2511 17.7001 40.2511 19.4167V25.8889H197.584V19.4167Z" fill="#5280E2"/>
<path d="M210.564 45.3056C210.564 43.5891 209.874 41.9428 208.644 40.729C207.415 39.5153 205.748 38.8334 204.009 38.8334H33.5645C31.8258 38.8334 30.1584 39.5153 28.929 40.729C27.6996 41.9428 27.0089 43.5891 27.0089 45.3056V51.7778H210.564V45.3056Z" fill="#5280E2"/>
</g>
<defs>
<clipPath id="clip0_573_146">
<rect width="236" height="233" fill="white"/>
</clipPath>
</defs>
</svg>
