<svg width="84" height="62" viewBox="0 0 84 62" fill="none" xmlns="http://www.w3.org/2000/svg">
<path d="M83.1562 31C83.1623 34.0407 82.4272 37.0522 80.9934 39.8604C79.5595 42.6687 77.4555 45.218 74.8027 47.3609C74.2719 47.786 73.5571 48.0248 72.8121 48.0258C72.057 48.0232 71.3318 47.7852 70.7859 47.3609C70.2541 46.9274 69.9555 46.3401 69.9555 45.7277C69.9555 45.1154 70.2541 44.528 70.7859 44.0945C72.9033 42.3762 74.5831 40.3351 75.7292 38.0882C76.8754 35.8412 77.4653 33.4326 77.4653 31C77.4653 28.5674 76.8754 26.1588 75.7292 23.9118C74.5831 21.6649 72.9033 19.6238 70.7859 17.9055C70.2958 17.4656 70.0324 16.8893 70.0504 16.2958C70.0684 15.7024 70.3663 15.1373 70.8825 14.7176C71.3986 14.2978 72.0935 14.0556 72.8233 14.0409C73.5531 14.0263 74.2618 14.2405 74.8027 14.6391C77.4555 16.7821 79.5595 19.3313 80.9934 22.1396C82.4272 24.9478 83.1623 27.9593 83.1562 31ZM51.875 3.25001V58.75C51.8754 59.184 51.7256 59.6094 51.4427 59.9774C51.1599 60.3455 50.7553 60.6414 50.2754 60.8312C49.8857 60.9795 49.4615 61.0583 49.0312 61.0625C48.4001 61.0584 47.7881 60.8857 47.2895 60.5711L22.4777 44.875H6.375C4.86658 44.875 3.41994 44.3877 2.35333 43.5204C1.28672 42.653 0.6875 41.4766 0.6875 40.25V21.75C0.6875 20.5234 1.28672 19.347 2.35333 18.4796C3.41994 17.6123 4.86658 17.125 6.375 17.125H22.4777L47.2895 1.42891C47.7094 1.16433 48.212 1.00068 48.7404 0.956496C49.2688 0.912313 49.8019 0.989369 50.2792 1.17893C50.7565 1.36849 51.159 1.66298 51.4411 2.02903C51.7231 2.39507 51.8734 2.81804 51.875 3.25001ZM6.375 40.25H20.5938V21.75H6.375V40.25ZM46.1875 7.99063L26.2812 20.5648V41.4352L46.1875 54.0094V7.99063ZM60.7262 22.8195C60.1944 23.253 59.8957 23.8404 59.8957 24.4527C59.8957 25.0651 60.1944 25.6524 60.7262 26.0859C61.5258 26.7285 62.1606 27.4937 62.5939 28.3372C63.0272 29.1808 63.2503 30.0858 63.2503 31C63.2503 31.9142 63.0272 32.8192 62.5939 33.6628C62.1606 34.5063 61.5258 35.2715 60.7262 35.9141C60.1944 36.3476 59.8957 36.9349 59.8957 37.5473C59.8957 38.1596 60.1944 38.747 60.7262 39.1805C61.272 39.6048 61.9972 39.8427 62.7523 39.8453C63.5061 39.837 64.2288 39.5999 64.7785 39.1805C67.4398 37.008 68.934 34.0665 68.934 31C68.934 27.9336 67.4398 24.992 64.7785 22.8195C64.2394 22.3853 63.5112 22.1417 62.7523 22.1417C61.9935 22.1417 61.2653 22.3853 60.7262 22.8195Z" fill="#5280E2"/>
</svg>
