<svg width="78" height="61" viewBox="0 0 78 61" fill="none" xmlns="http://www.w3.org/2000/svg">
<path d="M33.0583 43.7708C34.5917 45.2875 36.5722 46.0294 39 45.9965C41.4278 45.9662 43.2167 45.0979 44.3667 43.3917L60.5625 19.4094C61.1375 18.5246 61.057 17.7195 60.321 16.9941C59.5875 16.2661 58.7736 16.1864 57.8792 16.7552L33.6333 32.775C31.9083 33.9125 30.9985 35.6503 30.904 37.9885C30.8069 40.3267 31.525 42.2542 33.0583 43.7708ZM12.55 60.8333C11.2083 60.8333 9.93054 60.5174 8.71666 59.8854C7.50277 59.2535 6.54443 58.3687 5.84166 57.2312C4.18054 54.3875 2.90277 51.3706 2.00832 48.1805C1.11388 44.9879 0.666656 41.6222 0.666656 38.0833C0.666656 32.8382 1.67355 27.9242 3.68732 23.3413C5.69855 18.761 8.44577 14.7481 11.929 11.3028C15.4097 7.85995 19.4819 5.14259 24.1458 3.1507C28.8097 1.16134 33.7611 0.166656 39 0.166656C44.3028 0.166656 49.2695 1.16134 53.9002 3.1507C58.5334 5.14259 62.5903 7.85995 66.071 11.3028C69.5542 14.7481 72.3014 18.761 74.3127 23.3413C76.3264 27.9242 77.3333 32.8382 77.3333 38.0833C77.3333 41.6222 76.9027 44.9551 76.0415 48.0819C75.1777 51.2113 73.8833 54.2611 72.1583 57.2312C71.4555 58.3687 70.4972 59.2535 69.2833 59.8854C68.0694 60.5174 66.7917 60.8333 65.45 60.8333H12.55Z" fill="#15CDCB"/>
</svg>
