<svg width="40" height="39" viewBox="0 0 40 39" fill="none" xmlns="http://www.w3.org/2000/svg">
<path d="M37.8444 28.6078L33.96 24.8204C33.257 24.1354 32.3764 23.6492 31.4123 23.4137C30.4481 23.1783 29.4365 23.2024 28.4853 23.4835C27.5341 23.7647 26.679 24.2922 26.0112 25.01C25.3434 25.7277 24.8879 26.6088 24.6933 27.5591C18.2877 26.3913 12.0577 20.3419 11.67 14.935C12.7589 14.7397 13.7611 14.2258 14.5433 13.4617C15.5731 12.4575 16.1517 11.0955 16.1517 9.67545C16.1517 8.25536 15.5731 6.89342 14.5433 5.8892L10.66 2.10186C9.63 1.09777 8.23314 0.533691 6.77663 0.533691C5.32013 0.533691 3.92327 1.09777 2.8933 2.10186C-8.75781 13.4617 26.1933 47.539 37.8444 36.1792C38.8736 35.1749 39.4518 33.8132 39.4518 32.3935C39.4518 30.9738 38.8736 29.6121 37.8444 28.6078Z" fill="#5280E2"/>
</svg>
