<svg width="176" height="122" viewBox="0 0 176 122" fill="none" xmlns="http://www.w3.org/2000/svg">
<path d="M164.875 0.722168H11.1242C8.40959 0.722168 5.80614 1.80606 3.8866 3.73539C1.96706 5.66472 0.888672 8.28146 0.888672 11.0099V110.823C0.888672 113.552 1.96706 116.168 3.8866 118.098C5.80614 120.027 8.40959 121.111 11.1242 121.111H164.875C167.59 121.111 170.193 120.027 172.113 118.098C174.033 116.168 175.111 113.552 175.111 110.823V11.0099C175.111 8.28146 174.033 5.66472 172.113 3.73539C170.193 1.80606 167.59 0.722168 164.875 0.722168ZM121.646 65.4585L68.4542 89.3174C67.626 89.6917 66.7177 89.8517 65.8122 89.783C64.9067 89.7143 64.0327 89.4191 63.2697 88.9241C62.5067 88.4292 61.879 87.7503 61.4437 86.9492C61.0085 86.1482 60.7795 85.2504 60.7776 84.3377V36.6199C60.7795 35.7072 61.0085 34.8095 61.4437 34.0084C61.879 33.2074 62.5067 32.5285 63.2697 32.0335C64.0327 31.5386 64.9067 31.2433 65.8122 31.1747C66.7177 31.106 67.626 31.266 68.4542 31.6402L121.646 55.4444C122.613 55.8726 123.434 56.5738 124.011 57.4629C124.587 58.3519 124.894 59.3902 124.894 60.4515C124.894 61.5127 124.587 62.5511 124.011 63.4401C123.434 64.3291 122.613 65.0304 121.646 65.4585Z" fill="#3F54D1"/>
</svg>
