<svg width="86" height="80" viewBox="0 0 86 80" fill="none" xmlns="http://www.w3.org/2000/svg">
<path d="M41.8389 20.4449C42.7912 19.4407 43.1668 17.8627 42.6705 16.46C42.362 15.6152 42.0267 14.7864 41.6511 13.9894L41.2352 13.1287C40.8328 12.3317 40.3902 11.5507 39.9207 10.8016C39.1561 9.59016 37.8147 9.19168 36.6075 9.66986L32.8248 11.1522C31.3895 9.74956 29.7396 8.60192 27.969 7.82089L27.1508 3.19847C26.8959 1.71611 25.9301 0.536598 24.6692 0.361265C23.7571 0.21781 22.845 0.154053 21.9194 0.154053C20.9939 0.154053 20.0817 0.21781 19.183 0.345325C17.9221 0.520658 16.9563 1.71611 16.7015 3.18253L15.8832 7.82089C14.0992 8.61786 12.4627 9.74956 11.0274 11.1522L7.23135 9.6858C6.02411 9.20762 4.68274 9.6061 3.91815 10.8175C3.44867 11.5666 3.00602 12.3477 2.59019 13.1446L2.18778 13.9894C1.81219 14.7864 1.47685 15.6152 1.16833 16.476C0.672022 17.8627 1.04761 19.4407 1.99998 20.4608L4.97784 23.6168C4.83029 24.6847 4.74981 25.8005 4.74981 26.9322C4.74981 28.0639 4.83029 29.1796 4.97784 30.2635L1.99998 33.4195C1.04761 34.4237 0.672022 36.0017 1.16833 37.4044C1.47685 38.2492 1.81219 39.078 2.18778 39.8909L2.59019 40.7198C2.9926 41.5327 3.43526 42.2978 3.91815 43.0469C4.68274 44.2583 6.02411 44.6568 7.23135 44.1786L11.014 42.6962C12.4493 44.0989 14.0992 45.2465 15.8698 46.0276L16.6881 50.6659C16.9429 52.1483 17.9087 53.3278 19.1696 53.5031C20.0683 53.6306 20.9805 53.6944 21.906 53.6944C22.8316 53.6944 23.7437 53.6306 24.6424 53.5031C25.9033 53.3278 26.8691 52.1323 27.124 50.6659L27.9422 46.0276C29.7262 45.2306 31.3627 44.0989 32.798 42.6962L36.5807 44.1786C37.7879 44.6568 39.1293 44.2583 39.8939 43.0469C40.3633 42.2978 40.806 41.5327 41.2084 40.7198L41.6242 39.859C41.9998 39.0621 42.3352 38.2332 42.6437 37.3884C43.14 36.0017 42.7644 34.4237 41.812 33.4036L38.8342 30.2476C38.9817 29.1637 39.0622 28.048 39.0622 26.9163C39.0622 25.7846 38.9817 24.6688 38.8342 23.5849L41.812 20.4289L41.8389 20.4449ZM28.358 26.9322C28.358 31.1561 25.4741 34.5831 21.9194 34.5831C18.3648 34.5831 15.4808 31.1561 15.4808 26.9322C15.4808 22.7083 18.3648 19.2813 21.9194 19.2813C25.4741 19.2813 28.358 22.7083 28.358 26.9322ZM68.1567 78.6555C69.0017 79.7872 70.3297 80.2335 71.5101 79.6437C72.221 79.2771 72.9186 78.8786 73.5892 78.4323L74.3136 77.9382C74.9843 77.46 75.6415 76.934 76.272 76.3761C77.2914 75.4676 77.6268 73.8736 77.2244 72.4391L75.9769 67.9442C77.1573 66.2387 78.1231 64.2782 78.7804 62.1742L82.6838 61.2019C83.9313 60.899 84.9239 59.7514 85.0714 58.2531C85.1787 57.1851 85.2324 56.1013 85.2324 55.0014C85.2324 53.9016 85.1787 52.8177 85.0714 51.7498C84.9239 50.2515 83.9178 49.1039 82.6838 48.801L78.7804 47.8128C78.1097 45.6928 77.1573 43.7482 75.9769 42.0427L77.2244 37.5478C77.6268 36.1133 77.2914 34.5193 76.272 33.6108C75.6415 33.0529 74.9843 32.5269 74.3136 32.0328L73.6027 31.5546C72.932 31.1083 72.2345 30.7098 71.5101 30.3432C70.3431 29.7535 69.0151 30.1998 68.1567 31.3315L65.5007 34.87C64.5886 34.6947 63.6496 34.599 62.6973 34.599C61.7449 34.599 60.8059 34.6947 59.8938 34.87L57.2379 31.3315C56.3928 30.1998 55.0648 29.7535 53.8844 30.3432C53.1735 30.7098 52.476 31.1083 51.7919 31.5546L51.0944 32.0328C50.4103 32.511 49.7664 33.037 49.1359 33.6108C48.1165 34.5193 47.7812 36.1133 48.1836 37.5478L49.4311 42.0427C48.2506 43.7482 47.2849 45.7088 46.6276 47.8128L42.7242 48.7691C41.4767 49.072 40.4841 50.2196 40.3365 51.7179C40.2292 52.7859 40.1756 53.8697 40.1756 54.9696C40.1756 56.0694 40.2292 57.1532 40.3365 58.2212C40.4841 59.7195 41.4901 60.8671 42.7242 61.17L46.6276 62.1423C47.2983 64.2622 48.2506 66.2068 49.4311 67.9123L48.1836 72.4072C47.7812 73.8418 48.1165 75.4357 49.1359 76.3443C49.7664 76.9021 50.4103 77.4281 51.0944 77.9063L51.8187 78.4004C52.4894 78.8467 53.1869 79.2452 53.8978 79.6118C55.0648 80.2016 56.3928 79.7553 57.2513 78.6236L59.9072 75.085C60.8193 75.2604 61.7583 75.356 62.7107 75.356C63.6631 75.356 64.602 75.2604 65.5142 75.085L68.1701 78.6236L68.1567 78.6555ZM62.6973 62.6364C59.1426 62.6364 56.2587 59.2094 56.2587 54.9855C56.2587 50.7616 59.1426 47.3346 62.6973 47.3346C66.2519 47.3346 69.1359 50.7616 69.1359 54.9855C69.1359 59.2094 66.2519 62.6364 62.6973 62.6364Z" fill="url(#paint0_linear_967_70)"/>
<defs>
<linearGradient id="paint0_linear_967_70" x1="43.0907" y1="0.154053" x2="43.0907" y2="79.9042" gradientUnits="userSpaceOnUse">
<stop offset="0.9999" stop-color="#15CDCB"/>
<stop offset="1" stop-color="#3F54D1"/>
</linearGradient>
</defs>
</svg>
