<svg width="84" height="68" viewBox="0 0 84 68" fill="none" xmlns="http://www.w3.org/2000/svg">
<path d="M68.6092 42.3678C67.5414 42.3678 66.6469 41.9675 65.9257 41.1671C65.2021 40.3694 64.8403 39.3799 64.8403 38.1987V29.8604H57.3025C56.2346 29.8604 55.3401 29.4602 54.619 28.6597C53.8954 27.862 53.5336 26.8725 53.5336 25.6913C53.5336 24.51 53.8954 23.5192 54.619 22.7187C55.3401 21.921 56.2346 21.5221 57.3025 21.5221H64.8403V13.1839C64.8403 12.0026 65.2021 11.0118 65.9257 10.2113C66.6469 9.41361 67.5414 9.01477 68.6092 9.01477C69.6771 9.01477 70.5715 9.41361 71.2927 10.2113C72.0163 11.0118 72.3781 12.0026 72.3781 13.1839V21.5221H79.9159C80.9838 21.5221 81.8783 21.921 82.5994 22.7187C83.323 23.5192 83.6848 24.51 83.6848 25.6913C83.6848 26.8725 83.323 27.862 82.5994 28.6597C81.8783 29.4602 80.9838 29.8604 79.9159 29.8604H72.3781V38.1987C72.3781 39.3799 72.0163 40.3694 71.2927 41.1671C70.5715 41.9675 69.6771 42.3678 68.6092 42.3678ZM30.9202 34.0295C26.7744 34.0295 23.2253 32.3966 20.273 29.1308C17.3207 25.865 15.8445 21.9391 15.8445 17.353C15.8445 12.767 17.3207 8.84105 20.273 5.57524C23.2253 2.30942 26.7744 0.676514 30.9202 0.676514C35.0659 0.676514 38.615 2.30942 41.5673 5.57524C44.5196 8.84105 45.9958 12.767 45.9958 17.353C45.9958 21.9391 44.5196 25.865 41.5673 29.1308C38.615 32.3966 35.0659 34.0295 30.9202 34.0295ZM4.53781 67.3825C3.46995 67.3825 2.57547 66.9823 1.85435 66.1818C1.13072 65.3841 0.768906 64.3947 0.768906 63.2134V55.709C0.768906 53.3465 1.31917 51.1744 2.41969 49.1926C3.51769 47.2137 4.97752 45.7031 6.79915 44.6608C10.6937 42.5068 14.651 40.8905 18.6712 39.8121C22.6914 38.7365 26.7744 38.1987 30.9202 38.1987C35.0659 38.1987 39.1489 38.7365 43.1691 39.8121C47.1893 40.8905 51.1466 42.5068 55.0411 44.6608C56.8628 45.7031 58.3226 47.2137 59.4206 49.1926C60.5211 51.1744 61.0714 53.3465 61.0714 55.709V63.2134C61.0714 64.3947 60.7096 65.3841 59.986 66.1818C59.2648 66.9823 58.3703 67.3825 57.3025 67.3825H4.53781Z" fill="url(#paint0_linear_967_66)"/>
<defs>
<linearGradient id="paint0_linear_967_66" x1="42.2269" y1="0.676514" x2="42.2269" y2="67.3825" gradientUnits="userSpaceOnUse">
<stop offset="0.9999" stop-color="#15CDCB"/>
<stop offset="1" stop-color="#3F54D1"/>
</linearGradient>
</defs>
</svg>
