<svg width="74" height="66" viewBox="0 0 74 66" fill="none" xmlns="http://www.w3.org/2000/svg">
<path d="M20 24.4286H48.3333M20 33H54M20 41.5714H37M71 54.4286V11.5714C71 9.29814 69.806 7.11797 67.6805 5.51051C65.5551 3.90306 62.6725 3 59.6667 3H14.3333C11.3275 3 8.44487 3.90306 6.31946 5.51051C4.19404 7.11797 3 9.29814 3 11.5714V54.4286C3 56.7019 4.19404 58.882 6.31946 60.4895C8.44487 62.0969 11.3275 63 14.3333 63H59.6667C62.6725 63 65.5551 62.0969 67.6805 60.4895C69.806 58.882 71 56.7019 71 54.4286V54.4286Z" stroke="#4FE0B5" stroke-width="5" stroke-linecap="round" stroke-linejoin="round"/>
</svg>
