<svg width="97" height="40" viewBox="0 0 97 40" fill="none" xmlns="http://www.w3.org/2000/svg">
<path d="M30.4943 0C21.8109 5.58228 10.276 10.8627 0 12.4564C8.08132 14.5385 18.4037 15.1666 27.8459 13.7822C38.8555 18.3186 54.323 18.4424 66.0596 13.7822C75.359 15.9971 85.9743 15.6906 97 12.4342C84.6882 11.0434 71.1618 4.96475 64.91 0.000144712C53.4377 5.73677 41.9663 4.6546 30.4945 0.000144712L30.4943 0ZM2.85452 16.5105C6.43661 20.7923 12.8726 27.985 21.4058 35.4875C27.0363 40.4376 37.2402 39.9895 48.2705 39.9895C58.4603 39.9895 69.4137 40.0917 74.6504 35.4876C82.448 28.6318 88.8279 22.1461 92.8848 17.8231C67.0735 30.0623 27.4081 31.3147 2.85452 16.5108V16.5105Z" fill="#3F54D1"/>
</svg>
