<svg width="391" height="632" viewBox="0 0 391 632" fill="none" xmlns="http://www.w3.org/2000/svg">
<path d="M3.7 628.4L2.20518 629.729L2.24423 629.773L2.28579 629.814L3.7 628.4ZM388.1 628.4L389.764 629.509L389.791 629.47L389.815 629.429L388.1 628.4ZM385.3 570L384.582 571.867L384.582 571.867L385.3 570ZM262.5 564.8L261.162 566.287L261.239 566.356L261.324 566.417L262.5 564.8ZM254.5 2.39995L253.391 4.06406L253.494 4.13312L253.606 4.18881L254.5 2.39995ZM202.1 4.79997L203.717 5.97631L203.741 5.94331L203.764 5.90937L202.1 4.79997ZM194.9 17.6L196.693 18.4865L196.699 18.4732L196.706 18.4599L194.9 17.6ZM154.9 71.6L156.146 73.1646L156.149 73.1617L154.9 71.6ZM104.5 94L104.145 92.0318L104.14 92.0327L104.5 94ZM38.5 99.6L38.4787 97.6001L38.4581 97.6003L38.4375 97.6009L38.5 99.6ZM19.7 102.8L18.8542 100.988L18.8297 100.999L18.8056 101.011L19.7 102.8ZM18.1 162L17.071 163.715L17.1687 163.774L17.2724 163.821L18.1 162ZM139.3 168L137.662 169.147L137.728 169.242L137.805 169.329L139.3 168ZM138.9 564.4L137.486 562.986L137.444 563.027L137.405 563.071L138.9 564.4ZM4.1 570L3.20557 568.211L3.1667 568.231L3.12872 568.252L4.1 570ZM-1.5 611.2C-1.5 615.797 -1.23078 619.632 -0.66626 622.666C-0.112915 625.64 0.770257 628.114 2.20518 629.729L5.19482 627.071C4.49641 626.286 3.77958 624.693 3.26626 621.934C2.76412 619.235 2.5 615.67 2.5 611.2H-1.5ZM2.28579 629.814C3.88757 631.416 6.33491 632.424 9.28094 633.056C12.2712 633.696 16.0256 634 20.5 634V630C16.1744 630 12.7288 629.704 10.1191 629.144C7.46509 628.576 5.91243 627.784 5.11421 626.986L2.28579 629.814ZM20.5 634H373.7V630H20.5V634ZM373.7 634C377.776 634 381.16 633.697 383.785 633.04C386.35 632.399 388.549 631.333 389.764 629.509L386.436 627.291C386.051 627.867 385.05 628.601 382.815 629.16C380.64 629.703 377.624 630 373.7 630V634ZM389.815 629.429C390.818 627.757 391.466 625.413 391.879 622.59C392.298 619.726 392.5 616.188 392.5 612H388.5C388.5 616.079 388.302 619.407 387.921 622.01C387.534 624.654 386.982 626.376 386.385 627.371L389.815 629.429ZM392.5 612V582H388.5V612H392.5ZM392.5 582C392.5 575.213 390.754 569.955 386.018 568.133L384.582 571.867C386.779 572.712 388.5 575.453 388.5 582H392.5ZM386.018 568.133C382.229 566.676 377.286 566 371.3 566V570C377.047 570 381.438 570.657 384.582 571.867L386.018 568.133ZM371.3 566H282.5V570H371.3V566ZM282.5 566C277.356 566 273.205 565.735 270.016 565.225C266.77 564.706 264.753 563.965 263.676 563.183L261.324 566.417C263.18 567.768 265.964 568.628 269.384 569.175C272.862 569.731 277.244 570 282.5 570V566ZM263.838 563.313C262.974 562.536 262.091 560.904 261.454 557.975C260.83 555.104 260.5 551.262 260.5 546.4H256.5C256.5 551.405 256.837 555.563 257.546 558.825C258.242 562.029 259.359 564.664 261.162 566.287L263.838 563.313ZM260.5 546.4V14.4H256.5V546.4H260.5ZM260.5 14.4C260.5 10.9614 260.16 8.05449 259.397 5.76751C258.633 3.47503 257.37 1.59865 255.394 0.611098L253.606 4.18881C254.297 4.53459 255.033 5.32487 255.603 7.03241C256.174 8.74544 256.5 11.1719 256.5 14.4H260.5ZM255.609 0.735845C254.083 -0.28186 252.043 -0.946915 249.648 -1.36959C247.228 -1.79661 244.303 -2.00002 240.9 -2.00002V1.99998C244.164 1.99998 246.839 2.19657 248.952 2.56954C251.091 2.94685 252.517 3.48178 253.391 4.06406L255.609 0.735845ZM240.9 -2.00002H218.1V1.99998H240.9V-2.00002ZM218.1 -2.00002C213.731 -2.00002 210.05 -1.59298 207.125 -0.715674C204.208 0.159661 201.855 1.56235 200.436 3.69057L203.764 5.90937C204.479 4.83759 205.859 3.84029 208.275 3.11563C210.684 2.39295 213.936 1.99998 218.1 1.99998V-2.00002ZM200.483 3.62363C198.244 6.70203 195.782 11.0953 193.094 16.7401L196.706 18.4599C199.351 12.9047 201.69 8.7646 203.717 5.97631L200.483 3.62363ZM193.107 16.7135C181.184 40.8251 168.011 58.5498 153.651 70.0383L156.149 73.1617C171.122 61.1835 184.616 42.9082 196.693 18.4865L193.107 16.7135ZM153.654 70.0354C139.529 81.2836 123.039 88.6203 104.145 92.0318L104.855 95.9682C124.361 92.4463 141.471 84.8497 156.146 73.1646L153.654 70.0354ZM104.14 92.0327C85.3459 95.4738 63.4637 97.3343 38.4787 97.6001L38.5213 101.6C63.6696 101.332 85.7874 99.4595 104.86 95.9673L104.14 92.0327ZM38.4375 97.6009C29.8391 97.8697 23.2354 98.9431 18.8542 100.988L20.5458 104.612C24.1646 102.924 30.0943 101.864 38.5625 101.599L38.4375 97.6009ZM18.8056 101.011C16.2971 102.265 14.6335 104.675 13.6026 107.768C12.5736 110.854 12.1 114.828 12.1 119.6H16.1C16.1 115.039 16.5597 111.545 17.3974 109.032C18.2332 106.525 19.3695 105.201 20.5944 104.589L18.8056 101.011ZM12.1 119.6V149.6H16.1V119.6H12.1ZM12.1 149.6C12.1 153.043 12.4413 155.973 13.1966 158.314C13.9532 160.659 15.1836 162.583 17.071 163.715L19.129 160.285C18.3497 159.817 17.5802 158.874 17.0034 157.086C16.4253 155.294 16.1 152.824 16.1 149.6H12.1ZM17.2724 163.821C20.6067 165.336 25.4932 166 31.7 166V162C25.6402 162 21.4599 161.33 18.9276 160.179L17.2724 163.821ZM31.7 166H125.3V162H31.7V166ZM125.3 166C128.936 166 131.765 166.327 133.851 166.923C135.951 167.523 137.093 168.335 137.662 169.147L140.938 166.853C139.64 164.998 137.516 163.81 134.949 163.077C132.369 162.34 129.131 162 125.3 162V166ZM137.805 169.329C138.548 170.165 139.247 171.618 139.745 173.923C140.238 176.202 140.5 179.148 140.5 182.8H144.5C144.5 178.985 144.229 175.732 143.655 173.077C143.086 170.449 142.185 168.235 140.795 166.671L137.805 169.329ZM140.5 182.8V548.8H144.5V182.8H140.5ZM140.5 548.8C140.5 552.716 140.205 555.851 139.651 558.25C139.091 560.676 138.31 562.162 137.486 562.986L140.314 565.814C141.89 564.238 142.909 561.924 143.549 559.15C144.195 556.349 144.5 552.884 144.5 548.8H140.5ZM137.405 563.071C136.752 563.806 135.377 564.583 132.861 565.149C130.395 565.704 127.091 566 122.9 566V570C127.242 570 130.872 569.696 133.739 569.051C136.557 568.417 138.915 567.394 140.395 565.729L137.405 563.071ZM122.9 566H18.9V570H122.9V566ZM18.9 566C15.2462 566 12.1171 566.169 9.53217 566.518C6.97299 566.864 4.8238 567.402 3.20557 568.211L4.99443 571.789C6.04287 571.265 7.69368 570.803 10.0678 570.482C12.4162 570.165 15.3538 570 18.9 570V566ZM3.12872 568.252C1.24531 569.298 0.133941 571.315 -0.525301 573.659C-1.19593 576.043 -1.5 579.116 -1.5 582.8H2.5C2.5 579.284 2.79593 576.624 3.3253 574.741C3.86606 572.819 4.5547 572.035 5.07129 571.748L3.12872 568.252ZM-1.5 582.8V611.2H2.5V582.8H-1.5Z" fill="url(#paint0_linear_102_3)"/>
<defs>
<linearGradient id="paint0_linear_102_3" x1="191.5" y1="156.489" x2="202.25" y2="629.273" gradientUnits="userSpaceOnUse">
<stop offset="0.0520833" stop-color="#838383" stop-opacity="0.72"/>
<stop offset="0.817708" stop-color="#838383" stop-opacity="0.05"/>
<stop offset="1" stop-color="#838383" stop-opacity="0"/>
</linearGradient>
</defs>
</svg>
