<svg width="459" height="616" viewBox="0 0 459 616" fill="none" xmlns="http://www.w3.org/2000/svg">
<path d="M457.659 440.8H455.659V440.813L455.66 440.825L457.659 440.8ZM456.059 428.8L454.395 429.909L454.443 429.982L454.498 430.049L456.059 428.8ZM402.459 428.8L404.021 430.049L404.075 429.982L404.123 429.909L402.459 428.8ZM399.659 440.4L397.675 440.152L397.675 440.152L399.659 440.4ZM380.459 480.8L381.817 482.268L381.817 482.268L380.459 480.8ZM276.859 486.8L276.15 488.67L276.161 488.674L276.859 486.8ZM229.659 469.2L228.961 471.074L228.971 471.078L229.659 469.2ZM132.059 466.8L132.669 468.705L132.669 468.705L132.059 466.8ZM98.0594 486.8L99.4517 488.236L99.453 488.235L98.0594 486.8ZM81.6594 510.4L79.7418 509.832L79.7347 509.856L79.7281 509.88L81.6594 510.4ZM70.8594 514.4L68.9734 513.734L68.9613 513.769L68.9504 513.803L70.8594 514.4ZM78.8594 498L80.5869 499.008L80.5958 498.993L80.6044 498.977L78.8594 498ZM90.4594 478.8L92.1346 479.893L92.1751 479.83L92.2109 479.766L90.4594 478.8ZM140.459 417.6L141.809 419.076L141.81 419.075L140.459 417.6ZM227.659 360L228.559 361.786L228.56 361.786L227.659 360ZM310.059 317.2L309.122 315.433L309.114 315.437L310.059 317.2ZM378.859 273.2L380.093 274.774L380.093 274.774L378.859 273.2ZM425.259 220.8L423.53 219.795L423.526 219.803L425.259 220.8ZM384.459 37.2L383.38 38.8835L383.388 38.8887L384.459 37.2ZM116.059 20.8L115.275 18.9601L115.275 18.9601L116.059 20.8ZM39.6594 77.6L38.0721 76.3831L38.0636 76.3943L39.6594 77.6ZM23.2594 200.8L21.589 201.9L21.6046 201.924L21.6209 201.947L23.2594 200.8ZM51.2594 224.4L50.435 226.222L50.443 226.226L50.4511 226.229L51.2594 224.4ZM132.459 215.6L133.683 217.182L133.692 217.175L133.702 217.167L132.459 215.6ZM145.659 136.8L144.004 137.923L144.028 137.957L144.052 137.99L145.659 136.8ZM127.659 119.6L126.63 121.315L126.645 121.324L126.66 121.332L127.659 119.6ZM110.059 109.2L108.991 110.891L109.024 110.912L109.057 110.931L110.059 109.2ZM116.059 78L117.303 79.5662L117.309 79.5617L116.059 78ZM153.259 59.2L152.646 57.2962L152.637 57.2993L153.259 59.2ZM288.459 74L287.119 75.4842L287.125 75.4895L287.131 75.4948L288.459 74ZM299.659 199.2L297.918 198.217L297.918 198.217L299.659 199.2ZM216.459 282L215.332 280.348L215.326 280.352L215.32 280.357L216.459 282ZM169.259 314.8L168.116 313.159L168.112 313.162L169.259 314.8ZM44.0594 441.6L45.7593 442.654L45.762 442.649L44.0594 441.6ZM0.0593765 593.6L-1.94026 593.562L-1.94062 593.581V593.6H0.0593765ZM2.05938 605.2L0.431911 606.362L0.483312 606.434L0.540864 606.502L2.05938 605.2ZM64.8594 605.2L66.3779 606.502L66.4203 606.452L66.4594 606.4L64.8594 605.2ZM70.4594 595.2L68.6821 594.283L68.6653 594.315L68.6497 594.348L70.4594 595.2ZM87.6594 575.6L88.7688 577.264L88.7897 577.25L88.8104 577.236L87.6594 575.6ZM159.259 575.2L158.616 577.094L158.627 577.097L159.259 575.2ZM204.059 592L203.295 593.848L203.306 593.853L204.059 592ZM254.859 608.8L254.348 610.733L254.355 610.735L254.859 608.8ZM392.059 598.8L393.006 600.562L393.015 600.557L393.023 600.552L392.059 598.8ZM441.259 542.8L443.085 543.618L443.088 543.611L441.259 542.8ZM459.659 440.8C459.659 437.427 459.525 434.661 459.242 432.536C459.1 431.473 458.916 430.527 458.675 429.725C458.442 428.948 458.117 428.171 457.621 427.551L454.498 430.049C454.535 430.096 454.677 430.318 454.844 430.875C455.003 431.406 455.152 432.127 455.277 433.064C455.527 434.939 455.659 437.506 455.659 440.8H459.659ZM457.724 427.691C456.713 426.175 454.749 425.452 452.765 425.041C450.638 424.601 447.85 424.4 444.459 424.4V428.4C447.736 428.4 450.214 428.599 451.954 428.959C452.823 429.138 453.442 429.345 453.859 429.548C454.064 429.648 454.2 429.737 454.286 429.805C454.371 429.872 454.396 429.91 454.395 429.909L457.724 427.691ZM444.459 424.4H414.859V428.4H444.459V424.4ZM414.859 424.4C411.208 424.4 408.229 424.601 405.979 425.036C404.855 425.254 403.843 425.543 402.996 425.934C402.164 426.318 401.344 426.868 400.795 427.691L404.123 429.909C404.109 429.932 404.205 429.782 404.673 429.566C405.125 429.357 405.798 429.146 406.739 428.964C408.623 428.599 411.311 428.4 414.859 428.4V424.4ZM400.898 427.551C400.06 428.597 399.483 430.294 399.015 432.231C398.524 434.268 398.079 436.917 397.675 440.152L401.644 440.648C402.04 437.483 402.462 434.999 402.904 433.169C403.369 431.239 403.792 430.336 404.021 430.049L400.898 427.551ZM397.675 440.152C395.589 456.841 389.361 469.842 379.101 479.332L381.817 482.268C392.892 472.025 399.463 458.092 401.644 440.648L397.675 440.152ZM379.101 479.332C368.96 488.712 353.019 493.6 330.859 493.6V497.6C353.499 497.6 370.625 492.621 381.817 482.268L379.101 479.332ZM330.859 493.6C310.783 493.6 293.027 490.694 277.558 484.926L276.161 488.674C292.158 494.639 310.402 497.6 330.859 497.6V493.6ZM277.569 484.93C262.095 479.061 246.355 473.191 230.348 467.322L228.971 471.078C244.964 476.942 260.691 482.806 276.15 488.67L277.569 484.93ZM230.358 467.326C214.35 461.357 195.57 458.4 174.059 458.4V462.4C195.216 462.4 213.502 465.31 228.961 471.074L230.358 467.326ZM174.059 458.4C159.196 458.4 144.989 460.562 131.45 464.895L132.669 468.705C145.796 464.504 159.59 462.4 174.059 462.4V458.4ZM131.45 464.895C117.845 469.249 106.237 476.067 96.6658 485.365L99.453 488.235C108.548 479.399 119.607 472.885 132.669 468.705L131.45 464.895ZM96.6671 485.364C87.7596 494.002 82.0161 502.156 79.7418 509.832L83.577 510.968C85.5694 504.244 90.7591 496.665 99.4517 488.236L96.6671 485.364ZM79.7281 509.88C78.8351 513.197 77.708 515.466 76.4614 516.875C75.2715 518.22 73.9673 518.8 72.4594 518.8V522.8C75.2181 522.8 77.5806 521.647 79.4574 519.525C81.2774 517.468 82.617 514.536 83.5906 510.92L79.7281 509.88ZM72.4594 518.8C72.1465 518.8 72.1151 518.731 72.1857 518.783C72.2749 518.847 72.2443 518.893 72.1997 518.715C72.0753 518.217 72.1192 517.074 72.7683 514.997L68.9504 513.803C68.2662 515.993 67.9102 518.049 68.3191 519.685C68.5411 520.573 69.0105 521.419 69.833 522.017C70.637 522.602 71.5723 522.8 72.4594 522.8V518.8ZM72.7454 515.066C74.2874 510.697 76.887 505.351 80.5869 499.008L77.1318 496.992C73.3651 503.449 70.6314 509.037 68.9734 513.734L72.7454 515.066ZM80.6044 498.977C84.3167 492.348 88.1602 485.987 92.1346 479.893L88.7842 477.707C84.7586 483.88 80.8687 490.319 77.1144 497.023L80.6044 498.977ZM92.2109 479.766C103.55 459.197 120.065 438.964 141.809 419.076L139.11 416.124C117.12 436.236 100.302 456.803 88.7079 477.834L92.2109 479.766ZM141.81 419.075C163.771 398.966 192.671 379.863 228.559 361.786L226.76 358.214C190.648 376.403 161.415 395.7 139.109 416.125L141.81 419.075ZM228.56 361.786C257.64 347.112 285.122 332.838 311.004 318.963L309.114 315.437C283.264 329.295 255.812 343.554 226.758 358.214L228.56 361.786ZM310.997 318.967C337.216 305.054 360.252 290.325 380.093 274.774L377.626 271.626C358 287.008 335.169 301.612 309.122 315.433L310.997 318.967ZM380.093 274.774C400.005 259.167 415.651 241.511 426.993 221.797L423.526 219.803C412.468 239.022 397.18 256.299 377.626 271.626L380.093 274.774ZM426.989 221.805C438.657 201.724 444.459 178.434 444.459 152H440.459C440.459 177.832 434.795 200.409 423.53 219.795L426.989 221.805ZM444.459 152C444.459 99.4247 424.863 60.4665 385.531 35.5112L383.388 38.8887C421.39 63.0002 440.459 100.575 440.459 152H444.459ZM385.539 35.5165C346.445 10.4421 294.427 -2.00004 229.659 -2.00004V1.99996C293.958 1.99996 345.141 14.3578 383.38 38.8835L385.539 35.5165ZM229.659 -2.00004C186.248 -2.00004 148.105 4.96713 115.275 18.9601L116.844 22.6398C149.081 8.89947 186.671 1.99996 229.659 1.99996V-2.00004ZM115.275 18.9601C82.4791 32.9388 56.7148 52.0666 38.0722 76.3831L41.2466 78.8168C59.404 55.1333 84.573 36.3945 116.844 22.6398L115.275 18.9601ZM38.0636 76.3943C19.665 100.745 10.4594 128.37 10.4594 159.2H14.4594C14.4594 129.23 23.3871 102.454 41.2551 78.8056L38.0636 76.3943ZM10.4594 159.2C10.4594 176.281 14.1206 190.559 21.589 201.9L24.9297 199.7C17.9981 189.174 14.4594 175.719 14.4594 159.2H10.4594ZM21.6209 201.947C29.2808 212.89 38.8884 220.999 50.435 226.222L52.0837 222.578C41.2303 217.668 32.1713 210.044 24.8978 199.653L21.6209 201.947ZM50.4511 226.229C62.1547 231.401 74.029 234 86.0594 234V230C74.6231 230 63.2974 227.533 52.0677 222.571L50.4511 226.229ZM86.0594 234C103.332 234 119.223 228.368 133.683 217.182L131.236 214.018C117.429 224.699 102.387 230 86.0594 230V234ZM133.702 217.167C148.391 205.527 155.659 188.905 155.659 167.6H151.659C151.659 187.895 144.795 203.273 131.217 214.032L133.702 217.167ZM155.659 167.6C155.659 154.037 152.952 143.285 147.266 135.61L144.052 137.99C149.033 144.714 151.659 154.496 151.659 167.6H155.659ZM147.314 135.677C142.1 127.992 135.885 122.037 128.659 117.868L126.66 121.332C133.3 125.163 139.086 130.674 144.004 137.923L147.314 135.677ZM128.688 117.885C122.015 113.881 116.139 110.409 111.061 107.469L109.057 110.931C114.113 113.858 119.97 117.319 126.63 121.315L128.688 117.885ZM111.127 107.509C106.332 104.48 104.459 101.414 104.459 98.4H100.459C100.459 103.386 103.654 107.52 108.991 110.891L111.127 107.509ZM104.459 98.4C104.459 92.9595 108.349 86.6768 117.303 79.5662L114.816 76.4338C105.636 83.7231 100.459 91.0405 100.459 98.4H104.459ZM117.309 79.5617C126.401 72.2879 138.566 66.1179 153.882 61.1006L152.637 57.2993C137.019 62.4154 124.384 68.7787 114.81 76.4382L117.309 79.5617ZM153.872 61.1037C169.379 56.1102 186.635 53.6 205.659 53.6V49.6C186.284 49.6 168.607 52.1564 152.646 57.2962L153.872 61.1037ZM205.659 53.6C244.164 53.6 271.142 61.0535 287.119 75.4842L289.8 72.5158C272.71 57.0798 244.488 49.6 205.659 49.6V53.6ZM287.131 75.4948C303.351 89.9128 311.659 112.595 311.659 144H315.659C315.659 111.938 307.168 87.9538 289.788 72.5052L287.131 75.4948ZM311.659 144C311.659 163.946 307.07 182.004 297.918 198.217L301.401 200.183C310.915 183.33 315.659 164.587 315.659 144H311.659ZM297.918 198.217C288.691 214.561 276.823 229.466 262.3 242.933L265.019 245.867C279.829 232.134 291.961 216.906 301.401 200.183L297.918 198.217ZM262.3 242.933C247.707 256.465 232.051 268.936 215.332 280.348L217.587 283.652C234.467 272.13 250.279 259.535 265.019 245.867L262.3 242.933ZM215.32 280.357C198.785 291.824 183.051 302.758 168.116 313.159L170.402 316.441C185.335 306.042 201.067 295.109 217.599 283.643L215.32 280.357ZM168.112 313.162C112.743 351.947 70.7975 394.402 42.3567 440.551L45.762 442.649C73.8546 397.065 115.376 354.986 170.407 316.438L168.112 313.162ZM42.3595 440.546C13.8959 486.464 -0.866995 537.484 -1.94026 593.562L2.05901 593.638C3.11908 538.25 17.6895 487.936 45.7593 442.654L42.3595 440.546ZM-1.94062 593.6C-1.94062 596.597 -1.77118 599.154 -1.41154 601.24C-1.05852 603.287 -0.492331 605.069 0.431911 606.362L3.68684 604.038C3.27775 603.465 2.84394 602.379 2.5303 600.56C2.22327 598.779 2.05938 596.469 2.05938 593.6H-1.94062ZM0.540864 606.502C1.73681 607.897 3.57988 608.735 5.6901 609.244C7.83624 609.762 10.51 610 13.6594 610V606C10.6754 606 8.34918 605.771 6.62866 605.356C4.87221 604.932 3.98195 604.37 3.57789 603.898L0.540864 606.502ZM13.6594 610H51.6594V606H13.6594V610ZM51.6594 610C55.3264 610 58.3818 609.764 60.7744 609.256C63.0922 608.765 65.1374 607.949 66.3779 606.502L63.3409 603.898C62.9814 604.318 62.0265 604.902 59.9444 605.344C57.937 605.769 55.1924 606 51.6594 606V610ZM66.4594 606.4C68.1834 604.101 70.1188 600.621 72.269 596.052L68.6497 594.348C66.5333 598.846 64.7354 602.032 63.2594 604L66.4594 606.4ZM72.2366 596.117C76.3597 588.129 81.8722 581.862 88.7688 577.264L86.55 573.936C79.0466 578.938 73.0924 585.738 68.6821 594.283L72.2366 596.117ZM88.8104 577.236C95.5776 572.474 104.603 570 116.059 570V566C104.049 566 94.1412 568.593 86.5084 573.964L88.8104 577.236ZM116.059 570C130.503 570 144.686 572.363 158.616 577.094L159.903 573.306C145.566 568.437 130.949 566 116.059 566V570ZM158.627 577.097C172.978 581.881 187.867 587.464 203.295 593.848L204.824 590.152C189.318 583.736 174.341 578.119 159.892 573.303L158.627 577.097ZM203.306 593.853C219.126 600.288 236.14 605.914 254.348 610.733L255.371 606.867C237.312 602.086 220.46 596.512 204.813 590.147L203.306 593.853ZM254.355 610.735C272.946 615.585 293.518 618 316.059 618V614C293.8 614 273.573 611.615 255.364 606.865L254.355 610.735ZM316.059 618C345.654 618 371.326 612.215 393.006 600.562L391.113 597.038C370.126 608.319 345.131 614 316.059 614V618ZM393.023 600.552C414.794 588.578 431.468 569.552 443.085 543.618L439.434 541.982C428.117 567.248 411.991 585.555 391.096 597.048L393.023 600.552ZM443.088 543.611C454.714 517.384 460.195 483.067 459.659 440.775L455.66 440.825C456.191 482.799 450.738 516.482 439.431 541.989L443.088 543.611Z" fill="url(#paint0_linear_104_10)"/>
<defs>
<linearGradient id="paint0_linear_104_10" x1="229.5" y1="133.983" x2="229.804" y2="616.94" gradientUnits="userSpaceOnUse">
<stop offset="0.625" stop-color="#838383" stop-opacity="0.72"/>
<stop offset="1" stop-color="#838383" stop-opacity="0"/>
</linearGradient>
</defs>
</svg>
