<svg width="419" height="616" viewBox="0 0 419 616" fill="none" xmlns="http://www.w3.org/2000/svg">
<path d="M23.6125 546L21.9906 547.17L21.9977 547.18L23.6125 546ZM91.2125 596.8L90.4109 598.632L90.4178 598.635L90.4247 598.638L91.2125 596.8ZM286.413 605.2L285.886 603.27L285.886 603.27L286.413 605.2ZM355.613 573.2L354.458 571.567L354.448 571.574L355.613 573.2ZM402.013 521.6L400.257 520.642L400.252 520.65L402.013 521.6ZM391.613 366.8L389.986 367.964L389.992 367.972L391.613 366.8ZM298.813 308.8L298.228 310.713L298.229 310.713L298.813 308.8ZM276.013 304.4L275.913 306.397L275.963 306.4H276.013V304.4ZM275.213 293.2L275.102 291.203L275.102 291.203L275.213 293.2ZM300.013 285.6L299.296 283.733L299.275 283.741L299.255 283.749L300.013 285.6ZM362.013 248L363.427 249.414L363.433 249.408L363.439 249.402L362.013 248ZM393.613 198.4L395.504 199.049L395.507 199.041L393.613 198.4ZM376.813 64.4L378.365 63.1388L378.365 63.1388L376.813 64.4ZM306.813 16.4L306.108 18.2719L306.119 18.2758L306.129 18.2795L306.813 16.4ZM108.813 18.4L109.613 20.2327L109.621 20.2294L109.628 20.2261L108.813 18.4ZM46.0125 66.8L44.3821 65.6416L44.3792 65.6458L46.0125 66.8ZM35.6125 172.4L33.9681 173.538L33.9779 173.552L33.9879 173.566L35.6125 172.4ZM63.6125 195.6L62.7882 197.422L62.7882 197.422L63.6125 195.6ZM155.613 122L153.904 123.04L153.931 123.084L153.96 123.127L155.613 122ZM142.013 107.2L143.159 105.562L143.159 105.561L142.013 107.2ZM128.013 97.2L126.763 98.7617L126.796 98.7879L126.83 98.8128L128.013 97.2ZM140.013 62L141.013 63.7317L141.013 63.7317L140.013 62ZM256.813 75.2L255.445 76.6598L255.445 76.6598L256.813 75.2ZM278.013 183.6L276.049 183.222L276.046 183.237L276.043 183.252L278.013 183.6ZM264.013 222L265.734 223.017L265.739 223.009L265.744 223.001L264.013 222ZM233.613 252L234.666 253.7L233.613 252ZM181.213 268.4L181.412 270.39L181.435 270.388L181.458 270.385L181.213 268.4ZM167.213 269.2L167.079 271.196L167.146 271.2H167.213V269.2ZM157.613 271.6L156.385 270.021L156.339 270.057L156.295 270.095L157.613 271.6ZM158.013 327.6L156.684 329.095L156.733 329.138L156.785 329.179L158.013 327.6ZM168.013 330L167.888 328.004L167.888 328.004L168.013 330ZM182.813 330.8L182.53 332.78L182.572 332.786L182.615 332.79L182.813 330.8ZM252.013 353.2L250.838 354.819L250.852 354.829L250.867 354.84L252.013 353.2ZM287.613 396L285.764 396.763L285.768 396.773L287.613 396ZM285.213 509.2L287.001 510.094L287.001 510.094L285.213 509.2ZM247.213 548.8L248.174 550.554L248.184 550.548L247.213 548.8ZM141.613 556.8L141.016 558.709L141.039 558.716L141.063 558.723L141.613 556.8ZM111.213 541.6L109.943 543.145L111.213 541.6ZM105.613 510L106.914 511.519L106.944 511.493L106.973 511.466L105.613 510ZM132.013 484.8L133.7 485.874L133.711 485.857L133.721 485.84L132.013 484.8ZM120.013 419.6L118.686 421.097L118.696 421.105L118.705 421.114L120.013 419.6ZM22.0125 424L23.3849 425.455L23.3849 425.455L22.0125 424ZM-1.1875 478.8C-1.1875 502.993 6.56925 525.797 21.9906 547.17L25.2344 544.83C10.2558 524.07 2.8125 502.073 2.8125 478.8H-1.1875ZM21.9977 547.18C37.4548 568.332 60.3049 585.461 90.4109 598.632L92.0141 594.968C62.3867 582.006 40.1702 565.268 25.2273 544.82L21.9977 547.18ZM90.4247 598.638C120.61 611.575 157.697 618 201.613 618V614C158.062 614 121.548 607.625 92.0003 594.962L90.4247 598.638ZM201.613 618C231.906 618 260.351 614.381 286.939 607.13L285.886 603.27C259.674 610.419 231.586 614 201.613 614V618ZM286.939 607.13C313.539 599.875 336.828 589.114 356.777 574.826L354.448 571.574C334.931 585.553 312.086 596.125 285.886 603.27L286.939 607.13ZM356.767 574.833C377.002 560.533 392.684 543.105 403.773 522.55L400.252 520.65C389.475 540.628 374.223 557.6 354.458 571.567L356.767 574.833ZM403.768 522.558C415.145 501.7 420.813 478.165 420.813 452H416.813C416.813 477.568 411.28 500.433 400.257 520.642L403.768 522.558ZM420.813 452C420.813 419.857 411.62 391.045 393.233 365.628L389.992 367.972C407.872 392.689 416.813 420.676 416.813 452H420.813ZM393.239 365.636C374.754 339.812 343.361 320.291 299.396 306.887L298.229 310.713C341.731 323.976 372.204 343.121 389.986 367.964L393.239 365.636ZM299.397 306.887C289.732 303.934 281.909 302.4 276.013 302.4V306.4C281.316 306.4 288.693 307.799 298.228 310.713L299.397 306.887ZM276.112 302.402C273.605 302.277 272.045 301.782 271.159 301.162C270.4 300.63 270.013 299.931 270.013 298.8H266.013C266.013 301.136 266.958 303.103 268.866 304.438C270.646 305.685 273.087 306.256 275.913 306.397L276.112 302.402ZM270.013 298.8C270.013 297.586 270.4 296.877 271.04 296.379C271.782 295.802 273.112 295.32 275.323 295.197L275.102 291.203C272.513 291.347 270.243 291.931 268.585 293.221C266.825 294.59 266.013 296.548 266.013 298.8H270.013ZM275.323 295.197C280.503 294.909 289.062 292.241 300.77 287.451L299.255 283.749C287.497 288.559 279.522 290.957 275.102 291.203L275.323 295.197ZM300.729 287.467C327.307 277.266 348.24 264.601 363.427 249.414L360.598 246.586C345.918 261.266 325.518 273.668 299.296 283.733L300.729 287.467ZM363.439 249.402C378.555 234.016 389.262 217.233 395.504 199.049L391.721 197.751C385.696 215.301 375.337 231.584 360.586 246.598L363.439 249.402ZM395.507 199.041C401.708 180.706 404.813 162.09 404.813 143.2H400.813C400.813 161.643 397.783 179.827 391.718 197.759L395.507 199.041ZM404.813 143.2C404.813 111.606 396.027 84.8764 378.365 63.1388L375.26 65.6612C392.265 86.5902 400.813 112.394 400.813 143.2H404.813ZM378.365 63.1388C360.773 41.488 337.122 25.2937 307.496 14.5204L306.129 18.2795C335.169 28.8396 358.185 44.6453 375.26 65.6612L378.365 63.1388ZM307.517 14.528C278.194 3.49828 245.551 -2.00004 209.613 -2.00004V1.99996C245.141 1.99996 277.298 7.43498 306.108 18.2719L307.517 14.528ZM209.613 -2.00004C169.684 -2.00004 135.788 4.16204 107.997 16.5738L109.628 20.2261C136.77 8.10455 170.074 1.99996 209.613 1.99996V-2.00004ZM108.012 16.5672C80.2811 28.6826 59.0319 45.0234 44.3821 65.6416L47.6429 67.9584C61.7931 48.0432 82.4106 32.1174 109.613 20.2327L108.012 16.5672ZM44.3792 65.6458C30.0154 85.9719 22.8125 108.239 22.8125 132.4H26.8125C26.8125 109.094 33.743 87.6281 47.6458 67.9542L44.3792 65.6458ZM22.8125 132.4C22.8125 148.958 26.4783 162.72 33.9681 173.538L37.2569 171.262C30.3467 161.28 26.8125 148.376 26.8125 132.4H22.8125ZM33.9879 173.566C41.6503 184.239 51.2549 192.205 62.7882 197.422L64.4368 193.778C53.5701 188.862 44.508 181.361 37.2371 171.234L33.9879 173.566ZM62.7882 197.422C74.2346 202.6 85.9813 205.2 98.0125 205.2V201.2C86.577 201.2 75.3904 198.733 64.4368 193.778L62.7882 197.422ZM98.0125 205.2C116.324 205.2 131.877 199.582 144.543 188.293L141.882 185.307C130.015 195.884 115.435 201.2 98.0125 201.2V205.2ZM144.543 188.293C157.214 176.999 163.613 163.132 163.613 146.8H159.613C159.613 161.935 153.744 174.734 141.882 185.307L144.543 188.293ZM163.613 146.8C163.613 135.921 161.579 127.2 157.265 120.873L153.96 123.127C157.646 128.533 159.613 136.346 159.613 146.8H163.613ZM157.321 120.96C153.459 114.615 148.742 109.469 143.159 105.562L140.866 108.838C145.95 112.398 150.3 117.118 153.904 123.04L157.321 120.96ZM143.159 105.561C137.835 101.834 133.18 98.5096 129.195 95.5872L126.83 98.8128C130.845 101.757 135.524 105.099 140.866 108.838L143.159 105.561ZM129.262 95.6382C125.667 92.762 124.013 89.4417 124.013 85.6H120.013C120.013 90.825 122.358 95.238 126.763 98.7617L129.262 95.6382ZM124.013 85.6C124.013 77.864 129.253 70.5264 141.013 63.7317L139.012 60.2683C126.772 67.3402 120.013 75.7359 120.013 85.6H124.013ZM141.013 63.7317C152.625 57.0226 167.452 53.6 185.613 53.6V49.6C166.973 49.6 151.4 53.1108 139.012 60.2683L141.013 63.7317ZM185.613 53.6C215.944 53.6 239.125 61.3759 255.445 76.6598L258.18 73.7402C240.9 57.5574 216.614 49.6 185.613 49.6V53.6ZM255.445 76.6598C271.734 91.9141 280.013 113.986 280.013 143.2H284.013C284.013 113.214 275.491 89.9525 258.18 73.7402L255.445 76.6598ZM280.013 143.2C280.013 156.13 278.693 169.47 276.049 183.222L279.977 183.978C282.665 169.996 284.013 156.403 284.013 143.2H280.013ZM276.043 183.252C273.684 196.622 269.098 209.201 262.281 220.999L265.744 223.001C272.794 210.799 277.541 197.778 279.982 183.948L276.043 183.252ZM262.291 220.983C255.545 232.398 245.659 242.178 232.559 250.3L234.666 253.7C248.233 245.289 258.613 235.068 265.734 223.017L262.291 220.983ZM232.559 250.3C219.547 258.367 202.385 263.771 180.967 266.415L181.458 270.385C203.24 267.696 221.011 262.166 234.666 253.7L232.559 250.3ZM181.014 266.41C175.726 266.939 171.128 267.2 167.213 267.2V271.2C171.297 271.2 176.033 270.928 181.412 270.39L181.014 266.41ZM167.346 267.204C163.015 266.916 159.281 267.768 156.385 270.021L158.84 273.179C160.744 271.698 163.41 270.951 167.079 271.196L167.346 267.204ZM156.295 270.095C154.795 271.408 153.854 273.389 153.272 275.715C152.684 278.066 152.413 280.978 152.413 284.4H156.413C156.413 281.155 156.674 278.601 157.153 276.685C157.638 274.744 158.296 273.659 158.93 273.105L156.295 270.095ZM152.413 284.4V314.4H156.413V284.4H152.413ZM152.413 314.4C152.413 317.837 152.72 320.796 153.383 323.226C154.044 325.65 155.096 327.683 156.684 329.095L159.341 326.105C158.529 325.383 157.781 324.15 157.242 322.174C156.705 320.204 156.413 317.629 156.413 314.4H152.413ZM156.785 329.179C159.701 331.447 163.581 332.281 168.137 331.996L167.888 328.004C163.911 328.252 161.124 327.486 159.24 326.021L156.785 329.179ZM168.137 331.996C172.232 331.74 177.024 331.993 182.53 332.78L183.095 328.82C177.401 328.007 172.326 327.726 167.888 328.004L168.137 331.996ZM182.615 332.79C212.013 335.704 234.693 343.101 250.838 354.819L253.187 351.581C236.265 339.299 212.812 331.763 183.01 328.81L182.615 332.79ZM250.867 354.84C267.395 366.383 278.994 380.36 285.764 396.763L289.461 395.237C282.364 378.04 270.23 363.484 253.158 351.56L250.867 354.84ZM285.768 396.773C292.598 413.059 296.013 430.129 296.013 448H300.013C300.013 429.604 296.494 412.008 289.457 395.227L285.768 396.773ZM296.013 448C296.013 471.497 291.788 491.576 283.424 508.306L287.001 510.094C295.703 492.691 300.013 471.97 300.013 448H296.013ZM283.424 508.306C275.072 525.009 262.692 537.913 246.241 547.052L248.184 550.548C265.333 541.021 278.286 527.524 287.001 510.094L283.424 508.306ZM246.251 547.046C230.088 555.91 209.908 560.4 185.613 560.4V564.4C210.384 564.4 231.271 559.823 248.174 550.554L246.251 547.046ZM185.613 560.4C169.496 560.4 155.019 558.55 142.162 554.877L141.063 558.723C154.339 562.516 169.195 564.4 185.613 564.4V560.4ZM142.209 554.891C129.566 550.94 119.689 545.974 112.482 540.055L109.943 543.145C117.67 549.492 128.059 554.66 141.016 558.709L142.209 554.891ZM112.482 540.055C105.309 534.163 102.013 528.013 102.013 521.6H98.0125C98.0125 529.587 102.182 536.771 109.943 543.145L112.482 540.055ZM102.013 521.6C102.013 517.704 103.582 514.375 106.914 511.519L104.311 508.481C100.177 512.025 98.0125 516.429 98.0125 521.6H102.013ZM106.973 511.466C110.64 508.061 114.98 504.509 119.999 500.81L117.626 497.59C112.512 501.358 108.051 505.006 104.252 508.534L106.973 511.466ZM119.999 500.81C125.284 496.916 129.848 491.927 133.7 485.874L130.325 483.726C126.71 489.407 122.474 494.018 117.626 497.59L119.999 500.81ZM133.721 485.84C137.708 479.29 139.613 470.757 139.613 460.4H135.613C135.613 470.31 133.784 478.043 130.304 483.76L133.721 485.84ZM139.613 460.4C139.613 442.818 133.541 428.641 121.32 418.086L118.705 421.114C129.951 430.826 135.613 443.849 135.613 460.4H139.613ZM121.339 418.103C109.167 407.315 93.3282 402 74.0125 402V406C92.5634 406 107.391 411.085 118.686 421.097L121.339 418.103ZM74.0125 402C53.0008 402 35.1671 408.84 20.6401 422.545L23.3849 425.455C37.1245 412.493 53.9576 406 74.0125 406V402ZM20.6401 422.545C6.02922 436.329 -1.1875 455.165 -1.1875 478.8H2.8125C2.8125 456.035 9.72911 438.338 23.3849 425.455L20.6401 422.545Z" fill="url(#paint0_linear_104_11)"/>
<defs>
<linearGradient id="paint0_linear_104_11" x1="214.5" y1="131.596" x2="214.5" y2="451.385" gradientUnits="userSpaceOnUse">
<stop offset="0.3125" stop-color="#838383" stop-opacity="0.72"/>
<stop offset="1" stop-color="#838383" stop-opacity="0"/>
</linearGradient>
</defs>
</svg>
