<svg width="60" height="61" viewBox="0 0 60 61" fill="none" xmlns="http://www.w3.org/2000/svg">
<path d="M55.4637 30.2158C55.4637 44.4514 44.0222 55.9317 29.9819 55.9317C15.9415 55.9317 4.5 44.4514 4.5 30.2158C4.5 15.9803 15.9415 4.5 29.9819 4.5C44.0222 4.5 55.4637 15.9803 55.4637 30.2158Z" fill="#E9F0FF" stroke="#5280E2" stroke-width="9"/>
<path d="M29.7239 43.0485C27.9739 43.0485 26.4153 42.7477 25.0481 42.1461C23.6887 41.5367 22.6145 40.7008 21.8255 39.6383C21.0442 38.568 20.6419 37.3336 20.6184 35.9352H25.7278C25.7591 36.5211 25.9505 37.0367 26.302 37.4821C26.6614 37.9196 27.138 38.2594 27.7317 38.5016C28.3255 38.7438 28.9934 38.8649 29.7356 38.8649C30.5091 38.8649 31.1927 38.7281 31.7864 38.4547C32.3802 38.1813 32.845 37.8024 33.1809 37.318C33.5169 36.8336 33.6848 36.275 33.6848 35.6422C33.6848 35.0016 33.5052 34.4352 33.1458 33.943C32.7942 33.443 32.2864 33.0524 31.6223 32.7711C30.9661 32.4899 30.1848 32.3492 29.2786 32.3492H27.0403V28.6227H29.2786C30.0442 28.6227 30.72 28.4899 31.3059 28.2242C31.8997 27.9586 32.3606 27.5914 32.6887 27.1227C33.0169 26.6461 33.1809 26.0914 33.1809 25.4586C33.1809 24.8571 33.0364 24.3297 32.7473 23.8766C32.4661 23.4156 32.0677 23.0563 31.552 22.7985C31.0442 22.5406 30.4505 22.4117 29.7708 22.4117C29.0833 22.4117 28.4544 22.5367 27.8841 22.7867C27.3137 23.0289 26.8567 23.3766 26.513 23.8297C26.1692 24.2828 25.9856 24.8141 25.9622 25.4235H21.0989C21.1223 24.0406 21.5169 22.8219 22.2825 21.7672C23.0481 20.7125 24.0794 19.8883 25.3762 19.2946C26.6809 18.693 28.1536 18.3922 29.7942 18.3922C31.4505 18.3922 32.8997 18.693 34.1419 19.2946C35.3841 19.8961 36.3489 20.7086 37.0364 21.7321C37.7317 22.7477 38.0755 23.8883 38.0677 25.1539C38.0755 26.4977 37.6575 27.6188 36.8137 28.5172C35.9778 29.4156 34.888 29.986 33.5442 30.2281V30.4156C35.3098 30.6422 36.6536 31.2555 37.5755 32.2555C38.5052 33.2477 38.9661 34.4899 38.9583 35.9821C38.9661 37.3492 38.5716 38.5641 37.7747 39.6266C36.9856 40.6891 35.8958 41.525 34.5052 42.1344C33.1145 42.7438 31.5208 43.0485 29.7239 43.0485Z" fill="#3F54D1"/>
</svg>
