<svg width="60" height="61" viewBox="0 0 60 61" fill="none" xmlns="http://www.w3.org/2000/svg">
<path d="M55.4637 30.2158C55.4637 44.4514 44.0222 55.9317 29.9819 55.9317C15.9415 55.9317 4.5 44.4514 4.5 30.2158C4.5 15.9803 15.9415 4.5 29.9819 4.5C44.0222 4.5 55.4637 15.9803 55.4637 30.2158Z" fill="#E9F0FF" stroke="#5280E2" stroke-width="9"/>
<path d="M21.3362 42.7203V39.0641L29.8792 31.1539C30.6057 30.4508 31.2151 29.818 31.7073 29.2555C32.2073 28.693 32.5862 28.1422 32.844 27.6031C33.1018 27.0563 33.2307 26.4664 33.2307 25.8336C33.2307 25.1305 33.0706 24.525 32.7503 24.0172C32.43 23.5016 31.9925 23.1071 31.4378 22.8336C30.8831 22.5524 30.2542 22.4117 29.5511 22.4117C28.8167 22.4117 28.1761 22.5602 27.6292 22.8571C27.0823 23.1539 26.6604 23.5797 26.3636 24.1344C26.0667 24.6891 25.9182 25.3492 25.9182 26.1149H21.1018C21.1018 24.5446 21.4573 23.1813 22.1682 22.025C22.8792 20.8688 23.8753 19.9742 25.1565 19.3414C26.4378 18.7086 27.9143 18.3922 29.5862 18.3922C31.305 18.3922 32.8011 18.6969 34.0745 19.3063C35.3557 19.9078 36.3518 20.7438 37.0628 21.8141C37.7737 22.8844 38.1292 24.111 38.1292 25.4938C38.1292 26.4 37.9495 27.2946 37.5901 28.1774C37.2386 29.0602 36.6096 30.0406 35.7034 31.1188C34.7971 32.1891 33.5198 33.4742 31.8714 34.9742L28.3675 38.4078V38.5719H38.4456V42.7203H21.3362Z" fill="#3F54D1"/>
</svg>
