<svg width="942" height="68" viewBox="0 0 942 68" fill="none" xmlns="http://www.w3.org/2000/svg">
<path fill-rule="evenodd" clip-rule="evenodd" d="M905.836 39.8904H24.0602V22.8904H905.836V39.8904Z" fill="#5280E2"/>
<path d="M55.5705 30.2158C55.5705 44.4514 44.1289 55.9317 30.0886 55.9317C16.0483 55.9317 4.60677 44.4514 4.60677 30.2158C4.60677 15.9803 16.0483 4.5 30.0886 4.5C44.1289 4.5 55.5705 15.9803 55.5705 30.2158Z" fill="#E9F0FF" stroke="#5280E2" stroke-width="9"/>
<path d="M350.129 34.3425C350.129 48.578 338.688 60.0583 324.647 60.0583C310.607 60.0583 299.166 48.578 299.166 34.3425C299.166 20.107 310.607 8.62665 324.647 8.62665C338.688 8.62665 350.129 20.107 350.129 34.3425Z" fill="#E9F0FF" stroke="#5280E2" stroke-width="9"/>
<path d="M640.888 34.3425C640.888 48.578 629.446 60.0583 615.406 60.0583C601.365 60.0583 589.924 48.578 589.924 34.3425C589.924 20.107 601.365 8.62665 615.406 8.62665C629.446 8.62665 640.888 20.107 640.888 34.3425Z" fill="#E9F0FF" stroke="#5280E2" stroke-width="9"/>
<path d="M937.347 30.2158C937.347 44.4514 925.905 55.9317 911.865 55.9317C897.824 55.9317 886.383 44.4514 886.383 30.2158C886.383 15.9803 897.824 4.5 911.865 4.5C925.905 4.5 937.347 15.9803 937.347 30.2158Z" fill="#E9F0FF" stroke="#5280E2" stroke-width="9"/>
<path d="M35.2047 18.7203V42.7203H30.1305V23.5367H29.9898L24.4938 26.9821V22.4821L30.4352 18.7203H35.2047Z" fill="#3F54D1"/>
<path d="M316.781 45.7203V42.0641L325.324 34.1539C326.051 33.4508 326.66 32.818 327.152 32.2555C327.652 31.693 328.031 31.1422 328.289 30.6031C328.547 30.0563 328.676 29.4664 328.676 28.8336C328.676 28.1305 328.515 27.525 328.195 27.0172C327.875 26.5016 327.437 26.1071 326.883 25.8336C326.328 25.5524 325.699 25.4117 324.996 25.4117C324.261 25.4117 323.621 25.5602 323.074 25.8571C322.527 26.1539 322.105 26.5797 321.808 27.1344C321.511 27.6891 321.363 28.3492 321.363 29.1149H316.547C316.547 27.5446 316.902 26.1813 317.613 25.025C318.324 23.8688 319.32 22.9742 320.601 22.3414C321.883 21.7086 323.359 21.3922 325.031 21.3922C326.75 21.3922 328.246 21.6969 329.519 22.3063C330.801 22.9078 331.797 23.7438 332.508 24.8141C333.218 25.8844 333.574 27.111 333.574 28.4938C333.574 29.4 333.394 30.2946 333.035 31.1774C332.683 32.0602 332.054 33.0406 331.148 34.1188C330.242 35.1891 328.965 36.4742 327.316 37.9742L323.812 41.4078V41.5719H333.89V45.7203H316.781Z" fill="#3F54D1"/>
<path d="M615.664 47.3002C613.914 47.3002 612.355 46.9994 610.988 46.3978C609.629 45.7885 608.554 44.9525 607.765 43.89C606.984 42.8197 606.582 41.5853 606.558 40.1869H611.668C611.699 40.7728 611.89 41.2885 612.242 41.7338C612.601 42.1713 613.078 42.5111 613.672 42.7533C614.265 42.9955 614.933 43.1166 615.676 43.1166C616.449 43.1166 617.133 42.9799 617.726 42.7064C618.32 42.433 618.785 42.0541 619.121 41.5697C619.457 41.0853 619.625 40.5267 619.625 39.8939C619.625 39.2533 619.445 38.6869 619.086 38.1947C618.734 37.6947 618.226 37.3041 617.562 37.0228C616.906 36.7416 616.125 36.601 615.219 36.601H612.98V32.8744H615.219C615.984 32.8744 616.66 32.7416 617.246 32.476C617.84 32.2103 618.301 31.8431 618.629 31.3744C618.957 30.8978 619.121 30.3431 619.121 29.7103C619.121 29.1088 618.976 28.5814 618.687 28.1283C618.406 27.6674 618.008 27.308 617.492 27.0502C616.984 26.7924 616.39 26.6635 615.711 26.6635C615.023 26.6635 614.394 26.7885 613.824 27.0385C613.254 27.2806 612.797 27.6283 612.453 28.0814C612.109 28.5345 611.926 29.0658 611.902 29.6752H607.039C607.062 28.2924 607.457 27.0736 608.222 26.0189C608.988 24.9642 610.019 24.14 611.316 23.5463C612.621 22.9447 614.094 22.6439 615.734 22.6439C617.39 22.6439 618.84 22.9447 620.082 23.5463C621.324 24.1478 622.289 24.9603 622.976 25.9838C623.672 26.9994 624.015 28.14 624.008 29.4056C624.015 30.7494 623.597 31.8705 622.754 32.7689C621.918 33.6674 620.828 34.2377 619.484 34.4799V34.6674C621.25 34.8939 622.594 35.5072 623.515 36.5072C624.445 37.4994 624.906 38.7416 624.898 40.2338C624.906 41.601 624.511 42.8158 623.715 43.8783C622.926 44.9408 621.836 45.7767 620.445 46.3861C619.054 46.9955 617.461 47.3002 615.664 47.3002Z" fill="#3F54D1"/>
<path d="M901.029 38.7533V34.7572L911.049 18.972H914.494V24.5033H912.455L906.139 34.4994V34.6869H920.377V38.7533H901.029ZM912.549 42.972V37.5345L912.642 35.765V18.972H917.4V42.972H912.549Z" fill="#3F54D1"/>
</svg>
